<?xml version="1.0" encoding="utf-8"?>
<!-- Generator: Adobe Illustrator 24.1.0, SVG Export Plug-In . SVG Version: 6.00 Build 0)  -->
<svg version="1.1" id="Layer_1" xmlns="http://www.w3.org/2000/svg" xmlns:xlink="http://www.w3.org/1999/xlink" x="0px" y="0px"
	 viewBox="0 0 356 768" style="enable-background:new 0 0 356 768;" xml:space="preserve">
<style type="text/css">
	.st0{opacity:0.75;fill:#F4F0E4;}
	.st1{fill:#11324D;}
	.st2{fill:#FFFFFF;}
	.st3{fill:#C1CFC0;}
	.st4{fill:none;stroke:#11324D;stroke-width:3.3209;stroke-miterlimit:10;}
	.st5{fill:#C1CFC0;stroke:#11324D;stroke-width:3.3209;stroke-miterlimit:10;}
	.st6{fill:#6B7AA1;stroke:#11324D;stroke-width:2.4907;stroke-miterlimit:10;}
	.st7{fill:none;stroke:#11324D;stroke-width:2.4907;stroke-miterlimit:10;}
	.st8{fill:#C1CFC0;stroke:#11324D;stroke-width:3.594;stroke-miterlimit:10;}
	.st9{fill:none;stroke:#11324D;stroke-width:3.594;stroke-miterlimit:10;}
	.st10{font-family:'Silapakorn-Light';}
	.st11{font-size:92.296px;}
	.st12{font-size:14.8623px;}
</style>
<path class="st0" d="M312.07,115H94V0.04h262v71.03C356,95.33,336.33,115,312.07,115z"/>
<rect x="-40" y="0.04" class="st1" width="134.45" height="768"/>
<path class="st2" d="M73.81,70.04H21.1v-45.6c0-4.62,3.75-8.36,8.36-8.36h35.98c4.62,0,8.36,3.75,8.36,8.36L73.81,70.04L73.81,70.04
	z"/>
<path class="st3" d="M65.49,124H29.41c-4.59,0-8.31-3.72-8.31-8.31V70.04h52.71v45.65C73.81,120.28,70.08,124,65.49,124z"/>
<g>
	<polyline class="st4" points="57.16,50.91 57.16,45.46 37.79,45.46 37.79,50.91 	"/>
	<rect x="31.9" y="50.96" class="st5" width="11.58" height="11.58"/>
	<rect x="27.38" y="92.97" class="st6" width="7.3" height="7.3"/>
	<circle class="st5" cx="57.16" cy="56.75" r="7.06"/>
	<circle class="st6" cx="31.03" cy="82.77" r="4.29"/>
	<line class="st4" x1="47.47" y1="33.05" x2="47.47" y2="45.46"/>
	<line class="st4" x1="54.09" y1="33.03" x2="41.68" y2="33.03"/>
	<rect x="31.9" y="26.43" class="st5" width="11.58" height="11.58"/>
	<circle class="st5" cx="57.92" cy="32.22" r="7.06"/>
	<line class="st7" x1="38.68" y1="82.77" x2="66.82" y2="82.77"/>
	<line class="st7" x1="39.03" y1="96.61" x2="67.18" y2="96.61"/>
	<circle class="st6" cx="31.39" cy="111.35" r="4.29"/>
	<line class="st7" x1="39.03" y1="111.35" x2="67.18" y2="111.35"/>
</g>
<g>
	<path class="st8" d="M133.25,88.88h-13.04c-4.83,0-8.75-3.92-8.75-8.75V56.46V32.79c0-4.83,3.92-8.75,8.75-8.75h13.04
		c4.83,0,8.75,3.92,8.75,8.75v47.34C142,84.97,138.08,88.88,133.25,88.88z"/>
	<line class="st9" x1="111.45" y1="56.19" x2="142" y2="56.19"/>
	<line class="st9" x1="118.64" y1="40.21" x2="134.81" y2="40.21"/>
	<line class="st9" x1="118.64" y1="72.55" x2="134.81" y2="72.55"/>
	<line class="st9" x1="126.73" y1="32.12" x2="126.73" y2="48.29"/>
	<text transform="matrix(1 0 0 1 155.2036 89.1597)" class="st1 st10 st11">TREE</text>
</g>
<text transform="matrix(1 0 0 1 10.2031 756.9414)" class="st2 st10 st12">by Hirangy</text>
</svg>
